# xmcd CD database file
#
# Track frame offsets:
#	150
#	19322
#	48410
#
# Disc length: 792 seconds
#
# Revision: 1
# Processed by: cddbd v1.5.1PL0 Copyright (c) Steve Scherf et al.
# Submitted via: CDex 1.51
#
DISCID=1f031603
DTITLE=ウルフルズ - 暴れだす/大丈夫
DYEAR=2005
DGENRE=Rock
TTITLE0=暴れだす
TTITLE1=大丈夫
TTITLE2=(data)
EXTD=YEAR: 2005
EXTT0=
EXTT1=
EXTT2=
PLAYORDER=
